G04 EAGLE Gerber RS-274X export*
G75*
%MOMM*%
%FSLAX34Y34*%
%LPD*%
%INTop Copper*%
%IPPOS*%
%AMOC8*
5,1,8,0,0,1.08239X$1,22.5*%
G01*
%ADD10C,1.422400*%
%ADD11C,2.540000*%
%ADD12P,2.749271X8X22.500000*%
%ADD13P,1.814519X8X112.500000*%
%ADD14P,1.814519X8X22.500000*%
%ADD15C,1.108000*%
%ADD16R,1.508000X1.508000*%
%ADD17R,2.010000X2.010000*%
%ADD18C,2.010000*%
%ADD19C,1.108000*%
%ADD20C,0.381000*%
%ADD21C,0.152400*%


D10*
X25400Y510700D03*
X25400Y530700D03*
D11*
X1019175Y571500D03*
D12*
X1069975Y571500D03*
D11*
X1019175Y466725D03*
D12*
X1069975Y466725D03*
D10*
X818675Y692150D03*
X838675Y692150D03*
X932975Y692150D03*
X952975Y692150D03*
X98900Y520700D03*
X78900Y520700D03*
X587850Y327025D03*
X567850Y327025D03*
X673100Y387825D03*
X673100Y367825D03*
X711200Y387825D03*
X711200Y367825D03*
X752475Y387825D03*
X752475Y367825D03*
X787400Y387825D03*
X787400Y367825D03*
X825500Y387825D03*
X825500Y367825D03*
X60800Y520700D03*
X40800Y520700D03*
D13*
X654050Y328930D03*
X654050Y420370D03*
X692150Y328930D03*
X692150Y420370D03*
X730250Y328930D03*
X730250Y420370D03*
X768350Y328930D03*
X768350Y420370D03*
X806450Y328930D03*
X806450Y420370D03*
D14*
X894080Y628650D03*
X985520Y628650D03*
X779780Y628650D03*
X871220Y628650D03*
D15*
X952500Y602440D02*
X952500Y591360D01*
X927100Y591360D02*
X927100Y602440D01*
X901700Y602440D02*
X901700Y591360D01*
X876300Y591360D02*
X876300Y602440D01*
X850900Y602440D02*
X850900Y591360D01*
X825500Y591360D02*
X825500Y602440D01*
X800100Y602440D02*
X800100Y591360D01*
X774700Y591360D02*
X774700Y602440D01*
X749300Y602440D02*
X749300Y591360D01*
X723900Y591360D02*
X723900Y602440D01*
X698500Y602440D02*
X698500Y591360D01*
X673100Y591360D02*
X673100Y602440D01*
X647700Y602440D02*
X647700Y591360D01*
X622300Y591360D02*
X622300Y602440D01*
X596900Y602440D02*
X596900Y591360D01*
X596900Y450040D02*
X596900Y438960D01*
X622300Y438960D02*
X622300Y450040D01*
X647700Y450040D02*
X647700Y438960D01*
X673100Y438960D02*
X673100Y450040D01*
X698500Y450040D02*
X698500Y438960D01*
X723900Y438960D02*
X723900Y450040D01*
X749300Y450040D02*
X749300Y438960D01*
X774700Y438960D02*
X774700Y450040D01*
X800100Y450040D02*
X800100Y438960D01*
X825500Y438960D02*
X825500Y450040D01*
X850900Y450040D02*
X850900Y438960D01*
X876300Y438960D02*
X876300Y450040D01*
X901700Y450040D02*
X901700Y438960D01*
X927100Y438960D02*
X927100Y450040D01*
X952500Y450040D02*
X952500Y438960D01*
D16*
X104800Y496400D03*
X104800Y316400D03*
X504800Y316400D03*
X504800Y496400D03*
D17*
X555625Y381000D03*
D18*
X581025Y381000D03*
X606425Y381000D03*
D17*
X673100Y663575D03*
D18*
X698500Y663575D03*
X723900Y663575D03*
D17*
X558800Y663575D03*
D18*
X584200Y663575D03*
X609600Y663575D03*
D16*
X104800Y725000D03*
X104800Y545000D03*
X504800Y545000D03*
X504800Y725000D03*
D19*
X803275Y660400D03*
X828675Y660400D03*
X854075Y660400D03*
X917575Y660400D03*
X942975Y660400D03*
X968375Y660400D03*
D20*
X691896Y329184D02*
X655320Y329184D01*
X654050Y328930D01*
D21*
X691896Y329184D02*
X692150Y328930D01*
D20*
X693420Y329184D02*
X729996Y329184D01*
D21*
X730250Y328930D01*
D20*
X693420Y329184D02*
X692150Y328930D01*
X731520Y329184D02*
X768096Y329184D01*
D21*
X768350Y328930D01*
D20*
X731520Y329184D02*
X730250Y328930D01*
X769620Y329184D02*
X806196Y329184D01*
D21*
X806450Y328930D01*
X769620Y329184D02*
X768350Y328930D01*
D20*
X103632Y525780D02*
X103632Y544068D01*
X103632Y525780D02*
X99060Y521208D01*
D21*
X103632Y544068D02*
X104800Y545000D01*
X99060Y521208D02*
X98900Y520700D01*
D20*
X1069848Y571500D02*
X1069848Y467868D01*
X1069975Y466725D01*
X882523Y597408D02*
X876300Y597408D01*
X882523Y597408D02*
X919036Y633921D01*
X917448Y635508D02*
X917448Y659892D01*
D21*
X876300Y597408D02*
X876300Y596900D01*
X917448Y659892D02*
X917575Y660400D01*
D20*
X803148Y661416D02*
X725424Y661416D01*
X723900Y662940D01*
D21*
X803148Y661416D02*
X803275Y660400D01*
D20*
X723900Y662940D02*
X723900Y663575D01*
X1047242Y571500D02*
X1069848Y571500D01*
X1047242Y571500D02*
X1004697Y614045D01*
X938911Y614045D01*
X919036Y633921D02*
X917448Y635508D01*
X919036Y633921D02*
X938911Y614045D01*
D21*
X1069848Y571500D02*
X1069975Y571500D01*
D20*
X646049Y664464D02*
X609600Y664464D01*
X646049Y664464D02*
X661416Y679831D01*
X708533Y679831D01*
X723900Y664464D01*
X609600Y664464D02*
X609600Y663575D01*
X723900Y663575D02*
X723900Y664464D01*
X504444Y545592D02*
X105156Y545592D01*
D21*
X104800Y545000D01*
X504444Y545592D02*
X504800Y545000D01*
D20*
X30480Y530352D02*
X25908Y530352D01*
X30480Y530352D02*
X39624Y521208D01*
X25908Y530352D02*
X25400Y530700D01*
D21*
X39624Y521208D02*
X40800Y520700D01*
D20*
X79248Y521208D02*
X103632Y496824D01*
X104800Y496400D01*
X103632Y578485D02*
X103632Y723900D01*
X103632Y578485D02*
X79248Y554101D01*
X79248Y521208D01*
D21*
X103632Y723900D02*
X104800Y725000D01*
X79248Y521208D02*
X78900Y520700D01*
D20*
X77724Y521208D02*
X60960Y521208D01*
X60800Y520700D01*
D21*
X77724Y521208D02*
X78900Y520700D01*
D20*
X595884Y460248D02*
X595884Y595884D01*
X595884Y460248D02*
X556260Y420624D01*
X556260Y381000D01*
X595884Y595884D02*
X596900Y596900D01*
D21*
X556260Y381000D02*
X555625Y381000D01*
D20*
X672084Y437388D02*
X672084Y443484D01*
X672084Y437388D02*
X655320Y420624D01*
X672084Y443484D02*
X673100Y444500D01*
X655320Y420624D02*
X654050Y420370D01*
X672084Y402336D02*
X672084Y388620D01*
X672084Y402336D02*
X654050Y420370D01*
X672084Y388620D02*
X673100Y387825D01*
X673608Y368808D02*
X710184Y368808D01*
X673608Y368808D02*
X673100Y367825D01*
D21*
X710184Y368808D02*
X711200Y367825D01*
D20*
X752856Y368808D02*
X786384Y368808D01*
D21*
X752856Y368808D02*
X752475Y367825D01*
X786384Y368808D02*
X787400Y367825D01*
D20*
X876300Y419100D02*
X876300Y444500D01*
X876300Y419100D02*
X826008Y368808D01*
D21*
X825500Y367825D01*
D20*
X824484Y368808D02*
X787908Y368808D01*
D21*
X787400Y367825D01*
D20*
X824484Y368808D02*
X825500Y367825D01*
X751332Y368808D02*
X711708Y368808D01*
X711200Y367825D01*
X751332Y368808D02*
X752475Y367825D01*
X1019556Y467868D02*
X1019556Y571500D01*
X1019556Y467868D02*
X1019175Y466725D01*
X1019556Y571500D02*
X1019175Y571500D01*
X967740Y661416D02*
X967740Y678180D01*
X954024Y691896D01*
D21*
X967740Y661416D02*
X968375Y660400D01*
X954024Y691896D02*
X952975Y692150D01*
D20*
X807720Y723900D02*
X505968Y723900D01*
X807720Y723900D02*
X838200Y693420D01*
X505968Y723900D02*
X504800Y725000D01*
D21*
X838200Y693420D02*
X838675Y692150D01*
D20*
X853440Y678180D02*
X853440Y661416D01*
X853440Y678180D02*
X839724Y691896D01*
D21*
X853440Y661416D02*
X854075Y660400D01*
X839724Y691896D02*
X838675Y692150D01*
D20*
X952975Y692150D02*
X952975Y692117D01*
X939038Y678180D01*
X853440Y678180D01*
X876300Y445008D02*
X882269Y445008D01*
X903605Y466344D01*
X1018032Y466344D01*
X876300Y445008D02*
X876300Y444500D01*
X1018032Y466344D02*
X1019175Y466725D01*
X505968Y495300D02*
X505968Y388620D01*
X566928Y327660D01*
X505968Y495300D02*
X504800Y496400D01*
X566928Y327660D02*
X567850Y327025D01*
X586740Y327660D02*
X586740Y376428D01*
X582168Y381000D01*
X586740Y327660D02*
X587850Y327025D01*
X582168Y381000D02*
X581025Y381000D01*
X775716Y443484D02*
X783336Y443484D01*
X806450Y420370D01*
X775716Y443484D02*
X774700Y444500D01*
X824484Y402336D02*
X824484Y388620D01*
X824484Y402336D02*
X806450Y420370D01*
X824484Y388620D02*
X825500Y387825D01*
X697992Y425196D02*
X697992Y443484D01*
X697992Y425196D02*
X693420Y420624D01*
X697992Y443484D02*
X698500Y444500D01*
D21*
X693420Y420624D02*
X692150Y420370D01*
D20*
X710184Y402336D02*
X710184Y388620D01*
X710184Y402336D02*
X692150Y420370D01*
X710184Y388620D02*
X711200Y387825D01*
X723900Y426720D02*
X723900Y444500D01*
X723900Y426720D02*
X730250Y420370D01*
X751332Y399288D02*
X751332Y388620D01*
X751332Y399288D02*
X730250Y420370D01*
X751332Y388620D02*
X752475Y387825D01*
X749808Y438912D02*
X749808Y443484D01*
X749808Y438912D02*
X768350Y420370D01*
X749808Y443484D02*
X749300Y444500D01*
X786384Y402336D02*
X786384Y388620D01*
X786384Y402336D02*
X768350Y420370D01*
X786384Y388620D02*
X787400Y387825D01*
X818388Y691896D02*
X612648Y691896D01*
X585216Y664464D01*
D21*
X818388Y691896D02*
X818675Y692150D01*
D20*
X585216Y664464D02*
X584200Y663575D01*
X621792Y600456D02*
X621792Y597408D01*
X621792Y600456D02*
X559308Y662940D01*
X621792Y597408D02*
X622300Y596900D01*
X559308Y662940D02*
X558800Y663575D01*
X647700Y638556D02*
X647700Y596900D01*
X647700Y638556D02*
X672084Y662940D01*
D21*
X673100Y663575D01*
D20*
X829056Y659892D02*
X839724Y659892D01*
X870204Y629412D01*
X829056Y659892D02*
X828675Y660400D01*
D21*
X870204Y629412D02*
X871220Y628650D01*
D20*
X943356Y659892D02*
X954024Y659892D01*
X984504Y629412D01*
D21*
X943356Y659892D02*
X942975Y660400D01*
X984504Y629412D02*
X985520Y628650D01*
D20*
X780288Y627888D02*
X749300Y596900D01*
X780288Y627888D02*
X779780Y628650D01*
X783336Y597408D02*
X775716Y597408D01*
X783336Y597408D02*
X799973Y614045D01*
X879221Y614045D01*
X893064Y627888D01*
X775716Y597408D02*
X774700Y596900D01*
X893064Y627888D02*
X894080Y628650D01*
M02*
