M48
;GenerationSoftware,Autodesk,EAGLE,9.5.2*%
;CreationDate,2019-12-12T02:44:40Z*%
FMAT,2
ICI,OFF
METRIC,TZ,000.000
T6C0.600
T5C0.800
T4C0.813
T3C1.000
T2C1.016
T1C1.340
%
G90
M71
T1
X58420Y66358
X67310Y66358
X60642Y38100
X55562Y38100
X60960Y66358
X55880Y66358
X72390Y66358
X58102Y38100
X69850Y66358
T2
X101917Y57150
X106997Y57150
X101917Y46672
X106997Y46672
T3
X10480Y72500
X10480Y54500
X50480Y54500
X10480Y49640
X50480Y72500
X50480Y49640
X50480Y31640
X10480Y31640
T4
X65405Y32893
X65405Y42037
X69215Y32893
X89408Y62865
X80645Y32893
X76835Y42037
X76835Y32893
X73025Y42037
X73025Y32893
X69215Y42037
X80645Y42037
X77978Y62865
X87122Y62865
X98552Y62865
T5
X67310Y36783
X71120Y38783
X71120Y36783
X75248Y38783
X75248Y36783
X78740Y38783
X78740Y36783
X82550Y38783
X82550Y36783
X6080Y52070
X4080Y52070
X7890Y52070
X2540Y51070
X2540Y53070
X81868Y69215
X83868Y69215
X93297Y69215
X95297Y69215
X9890Y52070
X58785Y32702
X56785Y32702
X67310Y38783
T6
X64770Y44450
X67310Y44450
X69850Y44450
X72390Y44450
X74930Y44450
X77470Y44450
X80010Y44450
X82550Y44450
X85090Y44450
X87630Y44450
X90170Y44450
X92710Y44450
X95250Y44450
X82550Y59690
X85090Y59690
X87630Y59690
X90170Y59690
X92710Y59690
X95250Y59690
X77470Y59690
X74930Y59690
X72390Y59690
X69850Y59690
X67310Y59690
X80010Y59690
X64770Y59690
X62230Y59690
X59690Y59690
X59690Y44450
X62230Y44450
X80328Y66040
X82868Y66040
X85408Y66040
X91757Y66040
X94297Y66040
X96837Y66040
M30